<svg width="50" height="36" viewBox="0 0 50 36" fill="none" xmlns="http://www.w3.org/2000/svg">
<path d="M34.5579 21.8455C14.0313 41.6161 -5.13201 17.0218 3.2738 2.12109C-10.2864 25.1329 21.852 42.8472 34.5579 21.8455Z" fill="url(#paint0_linear_5908_5851)"/>
<path d="M20.9268 19.8921C30.2159 15.7564 37.156 22.4373 44.7368 21.0586" stroke="#E7CC59" stroke-width="0.557818"/>
<path fill-rule="evenodd" clip-rule="evenodd" d="M14.1622 0.532045L14.0343 0.499023L13.9278 0.57702L9.87044 3.54628L9.75625 3.62985V3.77135V15.2242V20.7154C9.15329 20.7586 8.50234 20.7818 7.79395 20.7818V21.3396C8.50016 21.3396 9.15135 21.3169 9.75625 21.2745V21.3794L9.92416 21.2622C12.8285 21.0382 14.6541 20.355 16.41 19.5653C16.6995 19.4351 16.9864 19.3024 17.2755 19.1687L17.2755 19.1687C19.1153 18.3177 21.0441 17.4255 24.2829 16.8818C28.0254 16.2536 30.481 16.6424 32.9897 17.1936C33.3161 17.2653 33.6438 17.3399 33.9756 17.4154L33.9761 17.4155L33.9763 17.4156C36.2047 17.9228 38.6176 18.472 42.0672 18.4764L42.0679 17.9186C41.1267 17.9174 40.265 17.8751 39.4637 17.8037V8.2153C39.4637 7.84923 39.2257 7.52565 38.8762 7.41658L35.8106 6.45965C35.5479 6.37764 35.2616 6.43009 35.045 6.59992L33.4606 7.84225C33.2583 8.00086 33.1402 8.24365 33.1402 8.5007V10.3501V12.365V14.2738V16.1826V16.6556L33.1094 16.6488C32.1858 16.4459 31.2641 16.2637 30.2816 16.1447V5.4922C30.2816 5.09877 30.0075 4.75848 29.6231 4.67468L25.9147 3.86619C25.6939 3.81804 25.463 3.86128 25.2745 3.98605L23.1584 5.38722C22.9243 5.54218 22.7836 5.80418 22.7836 6.08487V8.22424V15.8595V16.0716V16.6054C21.5989 16.8695 20.5999 17.1821 19.71 17.5151V2.18068V1.96464L19.5008 1.91063L14.1622 0.532045ZM19.1521 17.7317V2.39672L14.1506 1.10517L10.3141 3.91286V5.99375L13.8261 3.54264L14.1453 4.00007L10.3141 6.67399V8.85696L13.8261 6.40585L14.1453 6.86328L10.3141 9.5372V11.8262L13.8261 9.37511L14.1453 9.83254L10.3141 12.5065V14.6894L13.8261 12.2383L14.1453 12.6958L10.3141 15.3697V17.5527L13.8261 15.1015L14.1453 15.559L10.3141 18.2329V20.3098L13.8261 17.8587L14.1453 18.3161L10.8612 20.6082C13.1343 20.3263 14.6789 19.7322 16.1812 19.0566C16.4662 18.9284 16.7503 18.7969 17.038 18.6638L17.038 18.6638L17.038 18.6638C17.705 18.3551 18.3912 18.0376 19.1521 17.7317ZM29.7237 5.4922V16.0848C28.1403 15.937 26.3773 15.9647 24.1906 16.3317C23.8974 16.3809 23.6147 16.433 23.3414 16.4876V16.0716V16.0043L25.7855 14.2848L25.4645 13.8286L23.3414 15.3223V13.4592L25.7855 11.7398L25.4645 11.2835L23.3414 12.7772V10.9141L25.7855 9.19467L25.4645 8.73845L23.3414 10.2321V8.36904L25.7855 6.64959L25.4645 6.19337L23.3414 7.68701V6.08487C23.3414 5.99131 23.3883 5.90398 23.4663 5.85232L25.5825 4.45116C25.6453 4.40957 25.7223 4.39515 25.7959 4.4112L29.5042 5.21969C29.6324 5.24763 29.7237 5.36106 29.7237 5.4922ZM33.698 16.7803C33.8327 16.8108 33.9678 16.8415 34.1033 16.8723C35.5638 17.2045 37.0798 17.5494 38.9058 17.7485V8.2153C38.9058 8.09327 38.8265 7.98542 38.71 7.94906L35.6444 6.99213C35.5568 6.96479 35.4614 6.98228 35.3892 7.03889L33.8048 8.28122C33.7374 8.33409 33.698 8.41501 33.698 8.5007V9.82339L35.291 8.74086L35.6045 9.20224L33.698 10.4978V11.8382L35.291 10.7557L35.6045 11.2171L33.698 12.5127V13.747L35.291 12.6645L35.6045 13.1259L33.698 14.4215V15.6559L35.291 14.5733L35.6045 15.0347L33.698 16.3303V16.7803Z" fill="#E7CC59"/>
<path d="M14.7354 1.86719L18.5791 2.82159V18.0921L16.0166 19.201L14.7354 19.7369V1.86719Z" fill="#5E4924"/>
<path d="M26.4785 5.26074L29.041 5.83677V16.1005L27.7598 16.0773L26.4785 16.1204V5.26074Z" fill="#5E4924"/>
<path d="M36.3018 7.7002L38.6507 8.21412V17.6684L37.583 17.5753L36.3018 17.3505V7.7002Z" fill="#5E4924"/>
<path d="M49.2257 11.5343C54.5451 31.1406 31.0148 42.0988 22.4735 31.1797C32.4146 36.9655 50.9337 30.6985 49.2257 11.5343Z" fill="url(#paint1_linear_5908_5851)"/>
<defs>
<linearGradient id="paint0_linear_5908_5851" x1="1.34365" y1="7.84825" x2="32.5308" y2="29.394" gradientUnits="userSpaceOnUse">
<stop stop-color="#503D1D"/>
<stop offset="1" stop-color="#D9B265"/>
</linearGradient>
<linearGradient id="paint1_linear_5908_5851" x1="49.1118" y1="12.5764" x2="24.4629" y2="33.6715" gradientUnits="userSpaceOnUse">
<stop stop-color="#F6CA19"/>
<stop offset="1" stop-color="#FFC900" stop-opacity="0"/>
<stop offset="1" stop-color="#E9C435"/>
</linearGradient>
</defs>
</svg>
